<?xml version="1.0" encoding="utf-8"?>
<!-- Generator: Adobe Illustrator 18.0.0, SVG Export Plug-In . SVG Version: 6.00 Build 0)  -->
<!DOCTYPE svg PUBLIC "-//W3C//DTD SVG 1.1//EN" "http://www.w3.org/Graphics/SVG/1.1/DTD/svg11.dtd">
<svg version="1.1" id="Layer_1" xmlns="http://www.w3.org/2000/svg" xmlns:xlink="http://www.w3.org/1999/xlink" x="0px" y="0px"
	 viewBox="0 0 32 32" enable-background="new 0 0 32 32" xml:space="preserve">
<g id="gyro">
	<path opacity="0.4" fill="#3C3C3C" enable-background="new    " d="M16,1.3c-3.3,0-6.1,1-8.5,2.8C6.9,4.6,5.8,1.2,3.6,3.6
		C1.1,6,4.4,6.9,4,7.6C2.3,10,1.3,12.9,1.3,16h0.8H3c0-3.6,1.5-6.9,3.8-9.2S12.4,3,16,3c7.2,0,13,5.8,13,13c0,7.2-5.8,13-13,13
		C8.8,29,3,23.2,3,16H2.1H1.3c0,8.1,6.6,14.7,14.7,14.7c3.1,0,5.9-1,8.3-2.6c0.7-0.5,2.1,3.4,4.7,0.9c2.2-2.5-1.6-3.8-1-4.5
		c1.7-2.4,2.7-5.3,2.7-8.5C30.7,7.9,24.1,1.3,16,1.3z M16,4c-3.3,0-6.3,1.3-8.5,3.5l0.6,0.6L7.5,7.5C5.3,9.7,4,12.7,4,16
		s1.3,6.3,3.5,8.5C9.7,26.7,12.7,28,16,28h0c3.3,0,6.3-1.3,8.5-3.5c2.2-2.2,3.5-5.2,3.5-8.5s-1.3-6.3-3.5-8.5S19.3,4,16,4z M8.7,8.7
		c1.9-1.9,4.5-3,7.3-3s5.5,1.2,7.3,3s3,4.5,3,7.3c0,2.9-1.2,5.4-3,7.3c-1.9,1.9-4.5,3-7.3,3c-2.9,0-5.5-1.2-7.3-3
		c-1.9-1.9-3-4.5-3-7.3C5.6,13.1,6.8,10.6,8.7,8.7z"/>
	<path fill="#FFFFFF" stroke="#000000" stroke-width="0.2" stroke-miterlimit="10" d="M8.1,8.1c2-2,4.8-3.3,7.9-3.3s5.9,1.3,7.9,3.3
		c2,2,3.3,4.8,3.3,7.9c0,3.1-1.3,5.9-3.3,7.9c-2,2-4.8,3.3-7.9,3.3s-5.9-1.3-7.9-3.3S4.8,19.1,4.8,16C4.8,12.9,6,10.1,8.1,8.1z
		 M2.1,16c0,7.7,6.2,13.9,13.9,13.9c3.3,0,6.3-1.1,8.7-3l2,2c1,1,3-1,2.2-1.9l-2.1-2.1c2-2.4,3.2-5.5,3.2-8.8
		c0-7.7-6.2-13.9-13.9-13.9c-3.4,0-6.4,1.2-8.8,3.2L5.7,3.8c-0.8-0.8-2.8,0.9-2,1.9l1.5,1.7C3.3,9.7,2.1,12.7,2.1,16z"/>
	<g opacity="0.4">
		
			<path fill="#FFFFFF" stroke="#3C3C3C" stroke-width="2" stroke-linecap="round" stroke-linejoin="round" stroke-miterlimit="10" d="
			M10.7,9.8c0.3-0.3,0.9-0.3,1.2,0L22.2,20c0.4,0.4,0.4,0.9,0,1.2l-0.7,0.7c-0.3,0.3-0.9,0.3-1.2,0L10.1,11.7
			c-0.4-0.4-0.4-0.9,0-1.2L10.7,9.8z"/>
	</g>
	<g>
		<path fill="#FFFFFF" stroke="#000000" stroke-width="0.2" stroke-miterlimit="10" d="M10.8,9.8c0.3-0.3,0.9-0.3,1.2,0L22.2,20
			c0.4,0.4,0.4,0.9,0,1.2l-0.7,0.7c-0.3,0.3-0.9,0.3-1.2,0L10.2,11.7c-0.4-0.4-0.4-0.9,0-1.2L10.8,9.8z"/>
	</g>
</g>
</svg>
