<?xml version="1.0" encoding="utf-8"?>
<!-- Generator: Adobe Illustrator 18.0.0, SVG Export Plug-In . SVG Version: 6.00 Build 0)  -->
<!DOCTYPE svg PUBLIC "-//W3C//DTD SVG 1.1//EN" "http://www.w3.org/Graphics/SVG/1.1/DTD/svg11.dtd">
<svg version="1.1" id="Layer_1" xmlns="http://www.w3.org/2000/svg" xmlns:xlink="http://www.w3.org/1999/xlink" x="0px" y="0px"
	 viewBox="0 0 32 32" enable-background="new 0 0 32 32" xml:space="preserve">
<g id="gyro">
	<path opacity="0.4" fill="#3C3C3C" enable-background="new    " d="M16,2.5c-3,0-5.6,0.9-7.8,2.6C7.6,5.5,6.6,2.4,4.6,4.6
		C2.3,6.8,5.4,7.6,4.9,8.3c-1.5,2.2-2.4,4.8-2.4,7.7h0.8H4c0-3.3,1.3-6.3,3.5-8.5S12.7,4,16,4c6.6,0,12,5.4,12,12
		c0,6.6-5.4,12-12,12C9.4,28,4,22.6,4,16H3.3H2.5c0,7.5,6,13.5,13.5,13.5c2.8,0,5.5-0.9,7.6-2.4c0.7-0.4,1.9,3.1,4.3,0.8
		c2-2.3-1.4-3.5-1-4.2c1.6-2.2,2.5-4.9,2.5-7.8C29.5,8.5,23.5,2.5,16,2.5z M16,4.9c-3.1,0-5.8,1.2-7.8,3.2l0.5,0.5L8.2,8.2
		c-2,2-3.2,4.8-3.2,7.8s1.2,5.8,3.2,7.8c2,2,4.8,3.2,7.8,3.2h0c3.1,0,5.8-1.2,7.8-3.2s3.2-4.8,3.2-7.8s-1.2-5.8-3.2-7.8
		S19.1,4.9,16,4.9z M9.3,9.3C11,7.5,13.4,6.5,16,6.5s5,1.1,6.7,2.8s2.8,4.1,2.8,6.7c0,2.6-1.1,5-2.8,6.7c-1.7,1.7-4.1,2.8-6.7,2.8
		c-2.6,0-5-1.1-6.7-2.8S6.5,18.6,6.5,16C6.5,13.4,7.5,11,9.3,9.3z"/>
	<path fill="#FFFFFF" stroke="#000000" stroke-width="0.2" stroke-miterlimit="10" d="M8.7,8.7c1.9-1.9,4.4-3,7.3-3s5.4,1.2,7.3,3
		c1.9,1.9,3,4.4,3,7.3c0,2.8-1.2,5.4-3,7.3c-1.9,1.9-4.4,3-7.3,3s-5.4-1.2-7.3-3s-3-4.4-3-7.3C5.7,13.2,6.9,10.6,8.7,8.7z M3.3,16
		C3.3,23,9,28.7,16,28.7c3,0,5.8-1,8-2.8l1.8,1.8c0.9,0.9,2.8-0.9,2-1.7l-1.9-1.9c1.8-2.2,2.9-5,2.9-8.1C28.7,9,23,3.3,16,3.3
		c-3.1,0-5.9,1.1-8.1,2.9L6.5,4.8C5.7,4.1,3.9,5.6,4.7,6.5L6.1,8C4.3,10.2,3.3,13,3.3,16z"/>
	<g opacity="0.4">
		
			<path fill="#FFFFFF" stroke="#3C3C3C" stroke-width="2" stroke-linecap="round" stroke-linejoin="round" stroke-miterlimit="10" d="
			M11.2,10.3c0.3-0.3,0.8-0.3,1.1,0l9.4,9.4c0.3,0.3,0.3,0.8,0,1.1l-0.6,0.6c-0.3,0.3-0.8,0.3-1.1,0L10.6,12c-0.3-0.3-0.3-0.8,0-1.1
			L11.2,10.3z"/>
	</g>
	<g>
		<path fill="#FFFFFF" stroke="#000000" stroke-width="0.2" stroke-miterlimit="10" d="M11.2,10.3c0.3-0.3,0.8-0.3,1.1,0l9.4,9.4
			c0.3,0.3,0.3,0.8,0,1.1l-0.6,0.6c-0.3,0.3-0.8,0.3-1.1,0L10.7,12c-0.3-0.3-0.3-0.8,0-1.1L11.2,10.3z"/>
	</g>
</g>
</svg>
